<mxfile host="app.diagrams.net" modified="2023-09-02T00:29:54.235Z" agent="Mozilla/5.0 (Macintosh; Intel Mac OS X 10_15_7) AppleWebKit/537.36 (KHTML, like Gecko) Chrome/116.0.0.0 Safari/537.36" etag="ZSYN6qdArOBCLXppEqmb" version="21.7.1" type="github">
  <diagram name="Page-1" id="Kc4MLzsFsHWJehvtLD2Y">
    <mxGraphModel dx="1140" dy="672" grid="1" gridSize="10" guides="1" tooltips="1" connect="1" arrows="1" fold="1" page="1" pageScale="1" pageWidth="827" pageHeight="1169" math="0" shadow="0">
      <root>
        <mxCell id="0" />
        <mxCell id="1" parent="0" />
        <mxCell id="omjR8Fvp97VitsRuxtTw-4" style="edgeStyle=orthogonalEdgeStyle;rounded=0;sketch=1;hachureGap=4;jiggle=2;curveFitting=1;orthogonalLoop=1;jettySize=auto;html=1;exitX=1;exitY=0.5;exitDx=0;exitDy=0;entryX=0;entryY=0.5;entryDx=0;entryDy=0;fontFamily=Architects Daughter;fontSource=https%3A%2F%2Ffonts.googleapis.com%2Fcss%3Ffamily%3DArchitects%2BDaughter;fontSize=16;" parent="1" source="omjR8Fvp97VitsRuxtTw-2" target="omjR8Fvp97VitsRuxtTw-3" edge="1">
          <mxGeometry relative="1" as="geometry" />
        </mxCell>
        <mxCell id="omjR8Fvp97VitsRuxtTw-2" value="&lt;font face=&quot;Comic Sans MS&quot;&gt;.css&lt;/font&gt;" style="text;html=1;strokeColor=none;fillColor=none;align=center;verticalAlign=middle;whiteSpace=wrap;rounded=0;fontSize=20;fontFamily=Architects Daughter;" parent="1" vertex="1">
          <mxGeometry x="190" y="180" width="60" height="30" as="geometry" />
        </mxCell>
        <mxCell id="omjR8Fvp97VitsRuxtTw-3" value="&lt;font face=&quot;Comic Sans MS&quot;&gt;compiled.css&lt;/font&gt;" style="text;html=1;strokeColor=none;fillColor=none;align=center;verticalAlign=middle;whiteSpace=wrap;rounded=0;fontSize=20;fontFamily=Architects Daughter;" parent="1" vertex="1">
          <mxGeometry x="570" y="180" width="130" height="30" as="geometry" />
        </mxCell>
        <mxCell id="omjR8Fvp97VitsRuxtTw-6" style="edgeStyle=orthogonalEdgeStyle;rounded=0;sketch=1;hachureGap=4;jiggle=2;curveFitting=1;orthogonalLoop=1;jettySize=auto;html=1;exitX=1;exitY=0.5;exitDx=0;exitDy=0;entryX=0.5;entryY=1;entryDx=0;entryDy=0;fontFamily=Architects Daughter;fontSource=https%3A%2F%2Ffonts.googleapis.com%2Fcss%3Ffamily%3DArchitects%2BDaughter;fontSize=16;" parent="1" source="omjR8Fvp97VitsRuxtTw-5" target="omjR8Fvp97VitsRuxtTw-3" edge="1">
          <mxGeometry relative="1" as="geometry" />
        </mxCell>
        <mxCell id="omjR8Fvp97VitsRuxtTw-7" value="&lt;font face=&quot;Comic Sans MS&quot;&gt;&lt;font color=&quot;#00cc00&quot;&gt;transformScssPlugin&lt;/font&gt;&lt;br&gt;&lt;font color=&quot;#ff8000&quot;&gt;sass.compileString&lt;/font&gt;&lt;br&gt;&lt;/font&gt;" style="edgeLabel;html=1;align=center;verticalAlign=middle;resizable=0;points=[];fontSize=20;fontFamily=Architects Daughter;" parent="omjR8Fvp97VitsRuxtTw-6" vertex="1" connectable="0">
          <mxGeometry x="-0.1229" y="-1" relative="1" as="geometry">
            <mxPoint x="-13" y="-1" as="offset" />
          </mxGeometry>
        </mxCell>
        <mxCell id="omjR8Fvp97VitsRuxtTw-5" value="&lt;font face=&quot;Comic Sans MS&quot;&gt;.scss/.sass&lt;/font&gt;" style="text;html=1;strokeColor=none;fillColor=none;align=center;verticalAlign=middle;whiteSpace=wrap;rounded=0;fontSize=20;fontFamily=Architects Daughter;" parent="1" vertex="1">
          <mxGeometry x="165" y="250" width="110" height="30" as="geometry" />
        </mxCell>
        <mxCell id="omjR8Fvp97VitsRuxtTw-9" style="edgeStyle=orthogonalEdgeStyle;rounded=0;sketch=1;hachureGap=4;jiggle=2;curveFitting=1;orthogonalLoop=1;jettySize=auto;html=1;exitX=1;exitY=0.5;exitDx=0;exitDy=0;entryX=0.5;entryY=1;entryDx=0;entryDy=0;fontFamily=Architects Daughter;fontSource=https%3A%2F%2Ffonts.googleapis.com%2Fcss%3Ffamily%3DArchitects%2BDaughter;fontSize=16;" parent="1" source="omjR8Fvp97VitsRuxtTw-8" target="omjR8Fvp97VitsRuxtTw-3" edge="1">
          <mxGeometry relative="1" as="geometry" />
        </mxCell>
        <mxCell id="omjR8Fvp97VitsRuxtTw-10" value="&lt;font face=&quot;Comic Sans MS&quot;&gt;&lt;font color=&quot;#00cc00&quot;&gt;transformLessPlugin&lt;/font&gt;&lt;br&gt;&lt;font color=&quot;#ff8000&quot;&gt;less.render&lt;/font&gt;&lt;br&gt;&lt;/font&gt;" style="edgeLabel;html=1;align=center;verticalAlign=middle;resizable=0;points=[];fontSize=20;fontFamily=Architects Daughter;" parent="omjR8Fvp97VitsRuxtTw-9" vertex="1" connectable="0">
          <mxGeometry x="-0.2431" relative="1" as="geometry">
            <mxPoint as="offset" />
          </mxGeometry>
        </mxCell>
        <mxCell id="omjR8Fvp97VitsRuxtTw-8" value="&lt;font face=&quot;Comic Sans MS&quot;&gt;.less&lt;/font&gt;" style="text;html=1;strokeColor=none;fillColor=none;align=center;verticalAlign=middle;whiteSpace=wrap;rounded=0;fontSize=20;fontFamily=Architects Daughter;" parent="1" vertex="1">
          <mxGeometry x="190" y="320" width="60" height="30" as="geometry" />
        </mxCell>
      </root>
    </mxGraphModel>
  </diagram>
</mxfile>
